# xmcd
#
# Track frame offsets: 
#        150
#        16085
#        33475
#        50283
#        74369
#        96018
#        114086
#        128674
#        152070
#        168779
#        188889
#        208341
#        226358
#        245423
#        265571
#
# Disc length: 3815 seconds
#
# Revision: 0
# Processed by: cddbd v1.5.2PL0 Copyright (c) Steve Scherf et al.
# Submitted via: ExactAudioCopyFreeDBPlugin 1.0
#
DISCID=ba0ee50f
DTITLE=Nao Yoshioka - RISING
DYEAR=2015
DGENRE=R&B
TTITLE0=Love Is the Answer
TTITLE1=Just Go
TTITLE2=LIVE
TTITLE3=Joy
TTITLE4=I'm No Angel
TTITLE5=Rock Steady
TTITLE6=Turning
TTITLE7=Never Had Love Like This
TTITLE8=Nobody
TTITLE9=Awake
TTITLE10=Dreams
TTITLE11=I Need You
TTITLE12=Forget about It
TTITLE13=Coming out of the Dark
TTITLE14=Rise
EXTD=
EXTT0=
EXTT1=
EXTT2=
EXTT3=
EXTT4=
EXTT5=
EXTT6=
EXTT7=
EXTT8=
EXTT9=
EXTT10=
EXTT11=
EXTT12=
EXTT13=
EXTT14=
PLAYORDER=
